<?xml version="1.0" encoding="UTF-8" standalone="no"?>
<!DOCTYPE svg PUBLIC "-//W3C//DTD SVG 1.1//EN" "http://www.w3.org/Graphics/SVG/1.1/DTD/svg11.dtd">
<svg width="100%" height="100%" viewBox="0 0 2775 696" version="1.1" xmlns="http://www.w3.org/2000/svg" xmlns:xlink="http://www.w3.org/1999/xlink" xml:space="preserve" xmlns:serif="http://www.serif.com/" style="fill-rule:evenodd;clip-rule:evenodd;stroke-linejoin:round;stroke-miterlimit:2;">
    <g transform="matrix(4.16667,0,0,4.16667,0,0)">
        <g id="Two_line_logo" transform="matrix(1,0,0,1,0,-1)">
            <g>
                <path d="M318.6,65.2L318.6,9.2L344,9.2C346.9,9.2 349.5,9.6 351.8,10.5C354.1,11.4 356.1,12.5 357.7,14C359.3,15.5 360.5,17.2 361.4,19.2C362.3,21.2 362.7,23.4 362.7,25.8C362.7,29.4 361.7,32.6 359.6,35.3C357.5,38 354.7,40 351.2,41.1L363.7,65.2L354.4,65.2L342.8,42.2L327,42.2L327,65.2L318.6,65.2ZM343.3,16.6L327,16.6L327,35.3L343.3,35.3C346.8,35.3 349.5,34.4 351.4,32.6C353.3,30.8 354.2,28.6 354.2,26C354.2,23.4 353.3,21.2 351.4,19.4C349.6,17.5 346.9,16.6 343.3,16.6Z" style="fill:white;fill-rule:nonzero;"/>
                <path d="M366.1,44.8C366.1,41.9 366.6,39.2 367.7,36.6C368.7,34 370.2,31.8 372,29.9C373.8,28 376,26.5 378.5,25.4C381,24.3 383.7,23.8 386.5,23.8C389.3,23.8 391.9,24.3 394.3,25.4C396.7,26.5 398.8,28 400.5,29.9C402.2,31.8 403.6,34 404.6,36.7C405.6,39.3 406.1,42.1 406.1,45.1L406.1,47.4L374,47.4C374.5,50.8 376.1,53.5 378.6,55.8C381.2,58 384.2,59.1 387.7,59.1C389.7,59.1 391.6,58.8 393.4,58.1C395.2,57.5 396.8,56.6 398,55.5L403.1,60.5C400.7,62.4 398.2,63.7 395.7,64.6C393.2,65.5 390.4,65.9 387.3,65.9C384.3,65.9 381.5,65.4 378.9,64.3C376.3,63.2 374,61.7 372.1,59.9C370.2,58 368.7,55.8 367.6,53.2C366.6,50.6 366.1,47.8 366.1,44.8ZM386.3,30.6C383.2,30.6 380.5,31.6 378.3,33.6C376.1,35.6 374.6,38.2 374.1,41.4L398.3,41.4C397.8,38.3 396.4,35.7 394.1,33.6C391.8,31.5 389.2,30.6 386.3,30.6Z" style="fill:white;fill-rule:nonzero;"/>
                <path d="M445.1,65.2L445.1,61.4C443.4,62.8 441.5,63.9 439.3,64.7C437.2,65.5 434.9,65.9 432.6,65.9C429.7,65.9 427,65.4 424.5,64.3C422,63.2 419.8,61.7 418,59.8C416.2,57.9 414.7,55.7 413.6,53.1C412.5,50.5 412,47.8 412,44.9C412,42 412.5,39.3 413.6,36.7C414.7,34.1 416.1,31.9 418,30C419.8,28.1 422,26.6 424.6,25.5C427.1,24.4 429.9,23.9 432.8,23.9C435.1,23.9 437.3,24.2 439.4,24.9C441.5,25.6 443.4,26.6 445.1,27.9L445.1,9.2L453.1,7.4L453.1,65.2L445.1,65.2ZM419.9,44.8C419.9,48.8 421.2,52.2 423.9,54.9C426.6,57.6 429.9,59 433.7,59C436,59 438.2,58.6 440.1,57.7C442,56.8 443.6,55.6 445,54.1L445,35.6C443.7,34.2 442.1,33 440.1,32.1C438.1,31.2 436,30.8 433.7,30.8C429.8,30.8 426.5,32.1 423.8,34.8C421.2,37.5 419.9,40.8 419.9,44.8Z" style="fill:white;fill-rule:nonzero;"/>
                <path d="M480.1,65.2L480.1,9.2L488.5,9.2L488.5,33.2L518.3,33.2L518.3,9.2L526.7,9.2L526.7,65.2L518.3,65.2L518.3,40.8L488.5,40.8L488.5,65.2L480.1,65.2Z" style="fill:white;fill-rule:nonzero;"/>
                <path d="M549.2,66C544.8,66 541.2,64.8 538.4,62.5C535.6,60.2 534.2,57.2 534.2,53.6C534.2,49.5 535.8,46.5 538.9,44.4C542,42.3 546,41.2 550.7,41.2C552.7,41.2 554.6,41.4 556.5,41.8C558.4,42.2 560.2,42.7 561.8,43.4L561.8,39.1C561.8,36.2 560.9,34.1 559.2,32.6C557.5,31.2 555,30.4 551.8,30.4C549.8,30.4 547.8,30.7 545.8,31.3C543.7,31.9 541.5,32.7 539.2,33.9L536.2,27.9C539.1,26.6 541.9,25.5 544.6,24.8C547.3,24.1 550.1,23.7 552.9,23.7C558.1,23.7 562.2,25 565.1,27.5C568,30 569.5,33.6 569.5,38.3L569.5,65.3L561.7,65.3L561.7,61.8C559.9,63.2 558,64.3 555.9,65C553.9,65.6 551.6,66 549.2,66ZM541.9,53.4C541.9,55.4 542.8,57 544.5,58.2C546.2,59.4 548.4,60 551.1,60C553.2,60 555.2,59.7 557,59C558.8,58.4 560.4,57.4 561.9,56.1L561.9,49C560.4,48.2 558.8,47.6 557.1,47.2C555.4,46.8 553.5,46.6 551.4,46.6C548.6,46.6 546.4,47.2 544.6,48.4C542.8,49.6 541.9,51.3 541.9,53.4Z" style="fill:white;fill-rule:nonzero;"/>
                <path d="M582.6,55.2L582.6,31.2L574,31.2L574,24.5L582.6,24.5L582.6,14.1L590.5,12.2L590.5,24.5L602.5,24.5L602.5,31.2L590.5,31.2L590.5,53.3C590.5,55.4 591,56.8 591.9,57.7C592.8,58.6 594.4,59 596.5,59C597.7,59 598.7,58.9 599.5,58.8C600.4,58.7 601.3,58.4 602.3,58L602.3,64.7C601.2,65.1 599.9,65.4 598.5,65.6C597.1,65.8 595.8,65.9 594.7,65.9C590.8,65.9 587.7,65 585.7,63.1C583.7,61.4 582.6,58.7 582.6,55.2Z" style="fill:white;fill-rule:nonzero;"/>
            </g>
            <g id="Hat_icon_3_">
                <g>
                    <g>
                        <path id="Red_hat_3_" d="M129,92.2C141.5,92.2 159.6,89.6 159.6,74.7C159.6,73.5 159.6,72.4 159.3,71.3L151.8,39C150.1,31.9 148.6,28.7 136.1,22.4C126.4,17.4 105.3,9.3 99,9.3C93.2,9.3 91.5,16.8 84.6,16.8C77.9,16.8 73,11.2 66.7,11.2C60.7,11.2 56.8,15.3 53.8,23.7C53.8,23.7 45.4,47.4 44.3,50.9C44,51.5 44,52.2 44,52.8C44,62 80.3,92.2 129,92.2ZM161.5,80.8C163.2,89 163.2,89.9 163.2,90.9C163.2,104.9 147.5,112.7 126.8,112.7C80,112.7 39.1,85.3 39.1,67.2C39.1,64.4 39.7,61.8 40.6,59.9C23.8,60.8 2,63.8 2,83C2,114.5 76.6,153.3 135.7,153.3C181,153.3 192.4,132.8 192.4,116.7C192.3,103.9 181.4,89.4 161.5,80.8Z" style="fill:rgb(238,0,0);fill-rule:nonzero;"/>
                        <path id="Black_band_3_" d="M161.5,80.8C163.2,89 163.2,89.9 163.2,90.9C163.2,104.9 147.5,112.7 126.8,112.7C80,112.7 39.1,85.3 39.1,67.2C39.1,64.4 39.7,61.8 40.6,59.9L44.3,50.8C44,51.5 44,52.2 44,52.8C44,62 80.3,92.2 129,92.2C141.5,92.2 159.6,89.6 159.6,74.7C159.6,73.5 159.6,72.4 159.3,71.3L161.5,80.8Z" style="fill-rule:nonzero;"/>
                    </g>
                </g>
            </g>
            <path id="Dividing_line_3_" d="M255.5,160.7C254.3,160.7 253.3,159.7 253.3,158.5L253.3,4.2C253.3,3 254.3,2 255.5,2C256.7,2 257.7,3 257.7,4.2L257.7,158.4C257.7,159.7 256.7,160.7 255.5,160.7Z" style="fill:white;fill-rule:nonzero;"/>
            <g transform="matrix(1,0,0,1,11,61)">
                <g transform="matrix(96,0,0,96,300.511,92.7449)">
                    <path d="M0.063,-0L0.063,-0.7L0.604,-0.7L0.604,-0.574L0.208,-0.574L0.208,-0.409L0.471,-0.409L0.471,-0.287L0.208,-0.287L0.208,-0L0.063,-0Z" style="fill:white;fill-rule:nonzero;"/>
                </g>
                <g transform="matrix(96,0,0,96,362.431,92.7449)">
                    <path d="M0.054,-0L0.054,-0.521L0.191,-0.521L0.191,-0L0.054,-0ZM0.122,-0.583C0.1,-0.583 0.082,-0.591 0.067,-0.606C0.052,-0.621 0.044,-0.64 0.044,-0.661C0.044,-0.683 0.052,-0.702 0.067,-0.717C0.082,-0.732 0.1,-0.739 0.122,-0.739C0.144,-0.739 0.162,-0.732 0.177,-0.717C0.193,-0.702 0.2,-0.683 0.2,-0.661C0.2,-0.64 0.193,-0.621 0.177,-0.606C0.162,-0.591 0.144,-0.583 0.122,-0.583Z" style="fill:white;fill-rule:nonzero;"/>
                </g>
                <g transform="matrix(96,0,0,96,384.799,92.7449)">
                    <path d="M0.054,-0L0.054,-0.521L0.191,-0.521L0.191,-0.463C0.207,-0.486 0.228,-0.503 0.251,-0.515C0.274,-0.527 0.301,-0.533 0.33,-0.533C0.355,-0.532 0.374,-0.529 0.387,-0.521L0.387,-0.401C0.377,-0.406 0.366,-0.41 0.354,-0.412C0.342,-0.414 0.33,-0.415 0.317,-0.415C0.29,-0.415 0.266,-0.409 0.244,-0.395C0.222,-0.382 0.204,-0.363 0.191,-0.338L0.191,-0L0.054,-0Z" style="fill:white;fill-rule:nonzero;"/>
                </g>
                <g transform="matrix(96,0,0,96,420.415,92.7449)">
                    <path d="M0.309,0.01C0.257,0.01 0.21,-0.002 0.168,-0.026C0.125,-0.05 0.092,-0.083 0.067,-0.123C0.042,-0.164 0.03,-0.21 0.03,-0.26C0.03,-0.311 0.042,-0.356 0.065,-0.397C0.089,-0.438 0.121,-0.47 0.162,-0.494C0.203,-0.518 0.248,-0.53 0.298,-0.53C0.348,-0.53 0.392,-0.518 0.431,-0.493C0.47,-0.469 0.5,-0.435 0.523,-0.393C0.545,-0.351 0.556,-0.303 0.556,-0.25L0.556,-0.214L0.17,-0.214C0.176,-0.193 0.186,-0.174 0.2,-0.158C0.213,-0.141 0.23,-0.129 0.25,-0.119C0.271,-0.11 0.292,-0.105 0.316,-0.105C0.339,-0.105 0.361,-0.109 0.381,-0.116C0.4,-0.124 0.417,-0.134 0.431,-0.147L0.521,-0.065C0.489,-0.039 0.456,-0.02 0.423,-0.008C0.389,0.004 0.351,0.01 0.309,0.01ZM0.168,-0.312L0.421,-0.312C0.416,-0.333 0.408,-0.351 0.395,-0.367C0.383,-0.382 0.368,-0.395 0.351,-0.403C0.334,-0.412 0.315,-0.417 0.295,-0.417C0.274,-0.417 0.255,-0.413 0.237,-0.404C0.22,-0.395 0.206,-0.383 0.194,-0.368C0.182,-0.352 0.173,-0.334 0.168,-0.312Z" style="fill:white;fill-rule:nonzero;"/>
                </g>
                <g transform="matrix(96,0,0,96,478.207,92.7449)">
                    <path d="M0.054,-0L0.054,-0.7L0.191,-0.723L0.191,-0L0.054,-0Z" style="fill:white;fill-rule:nonzero;"/>
                </g>
                <g transform="matrix(96,0,0,96,500.575,92.7449)">
                    <path d="M0.054,-0L0.054,-0.521L0.191,-0.521L0.191,-0L0.054,-0ZM0.122,-0.583C0.1,-0.583 0.082,-0.591 0.067,-0.606C0.052,-0.621 0.044,-0.64 0.044,-0.661C0.044,-0.683 0.052,-0.702 0.067,-0.717C0.082,-0.732 0.1,-0.739 0.122,-0.739C0.144,-0.739 0.162,-0.732 0.177,-0.717C0.193,-0.702 0.2,-0.683 0.2,-0.661C0.2,-0.64 0.193,-0.621 0.177,-0.606C0.162,-0.591 0.144,-0.583 0.122,-0.583Z" style="fill:white;fill-rule:nonzero;"/>
                </g>
                <g transform="matrix(96,0,0,96,522.943,92.7449)">
                    <path d="M0.054,-0L0.054,-0.521L0.191,-0.521L0.191,-0.478C0.23,-0.514 0.279,-0.531 0.337,-0.531C0.378,-0.531 0.413,-0.522 0.444,-0.505C0.475,-0.487 0.499,-0.463 0.517,-0.432C0.534,-0.4 0.543,-0.364 0.543,-0.323L0.543,-0L0.406,-0L0.406,-0.303C0.406,-0.337 0.397,-0.364 0.377,-0.384C0.358,-0.403 0.331,-0.413 0.298,-0.413C0.275,-0.413 0.254,-0.409 0.236,-0.4C0.218,-0.39 0.203,-0.378 0.191,-0.361L0.191,-0L0.054,-0Z" style="fill:white;fill-rule:nonzero;"/>
                </g>
                <g transform="matrix(96,0,0,96,578.815,92.7449)">
                    <path d="M0.054,-0L0.054,-0.7L0.191,-0.723L0.191,-0.302L0.416,-0.521L0.571,-0.521L0.325,-0.282L0.586,-0L0.411,-0L0.191,-0.238L0.191,-0L0.054,-0Z" style="fill:white;fill-rule:nonzero;"/>
                </g>
            </g>
        </g>
    </g>
</svg>
